<svg width="230" height="28" viewBox="0 0 230 28" fill="none" xmlns="http://www.w3.org/2000/svg">
<path d="M8.63935 16.095C8.63935 15.5482 8.58468 15.0093 8.47532 14.4781C8.38158 13.9313 8.20973 13.4392 7.95977 13.0017C7.70981 12.5643 7.36611 12.2128 6.92867 11.9472C6.49124 11.6816 5.94445 11.5488 5.2883 11.5488C4.85086 11.5488 4.47592 11.6269 4.16346 11.7832C3.86663 11.9238 3.60105 12.1034 3.36671 12.3222C2.86678 12.7596 2.52309 13.3142 2.33561 13.986C2.14814 14.6421 2.05441 15.3451 2.05441 16.095C2.05441 16.8449 2.14814 17.5557 2.33561 18.2275C2.52309 18.8837 2.86678 19.4305 3.36671 19.8679C3.60105 20.0866 3.86663 20.2741 4.16346 20.4303C4.47592 20.5709 4.85086 20.6412 5.2883 20.6412C5.94445 20.6412 6.49124 20.5084 6.92867 20.2428C7.36611 19.9773 7.70981 19.6257 7.95977 19.1883C8.20973 18.7509 8.38158 18.2666 8.47532 17.7354C8.58468 17.1886 8.63935 16.6418 8.63935 16.095ZM10.6781 16.0716C10.6781 17.1027 10.5219 18.0635 10.2094 18.954C9.9126 19.8288 9.46736 20.5553 8.87369 21.1333C8.48313 21.4927 8.01445 21.7817 7.46766 22.0004C6.93649 22.2191 6.31939 22.3285 5.61637 22.3285C5.2883 22.3285 4.95241 22.2894 4.60871 22.2113C4.28063 22.1332 3.96037 22.0238 3.64792 21.8832C3.33546 21.7426 3.04644 21.5708 2.78086 21.3677C2.5309 21.149 2.3278 20.9068 2.17158 20.6412V27.0856H0.179688V10.1662H1.93724L2.07784 11.7129C2.42154 11.1192 2.92927 10.6662 3.60105 10.3537C4.27282 10.0256 4.9446 9.86159 5.61637 9.86159C6.35064 9.86159 6.99116 9.97876 7.53796 10.2131C8.10037 10.4318 8.57686 10.7443 8.96743 11.1505C9.52985 11.7285 9.95166 12.4471 10.2329 13.3064C10.5297 14.1656 10.6781 15.0874 10.6781 16.0716Z" fill="white"/>
<path d="M21.7091 16.0716C21.7091 15.3686 21.631 14.689 21.4748 14.0328C21.3185 13.3767 21.0295 12.8299 20.6077 12.3925C20.3577 12.1425 20.0531 11.9394 19.6938 11.7832C19.3501 11.6269 18.9439 11.5488 18.4752 11.5488C18.0065 11.5488 17.5925 11.6269 17.2332 11.7832C16.8895 11.9394 16.5927 12.1425 16.3427 12.3925C15.9209 12.8299 15.6319 13.3767 15.4757 14.0328C15.3194 14.689 15.2413 15.3686 15.2413 16.0716C15.2413 16.7746 15.3194 17.4542 15.4757 18.1103C15.6319 18.7665 15.9209 19.3133 16.3427 19.7507C16.5927 20.0007 16.8895 20.2038 17.2332 20.36C17.5925 20.5162 18.0065 20.5944 18.4752 20.5944C18.9439 20.5944 19.3501 20.5162 19.6938 20.36C20.0531 20.2038 20.3577 20.0007 20.6077 19.7507C21.0295 19.3133 21.3185 18.7665 21.4748 18.1103C21.631 17.4542 21.7091 16.7746 21.7091 16.0716ZM23.7479 16.0716C23.7479 17.009 23.6307 17.8916 23.3964 18.7196C23.162 19.5476 22.7168 20.2819 22.0606 20.9224C21.6232 21.3442 21.0998 21.6801 20.4905 21.9301C19.8969 22.1801 19.2251 22.305 18.4752 22.305C17.7253 22.305 17.0457 22.1801 16.4365 21.9301C15.8428 21.6801 15.3273 21.3442 14.8898 20.9224C14.2337 20.2819 13.7884 19.5476 13.5541 18.7196C13.3197 17.8916 13.2026 17.009 13.2026 16.0716C13.2026 15.1342 13.3197 14.2516 13.5541 13.4236C13.7884 12.5956 14.2337 11.8613 14.8898 11.2208C15.3273 10.7989 15.8428 10.4631 16.4365 10.2131C17.0457 9.96313 17.7253 9.83815 18.4752 9.83815C19.2251 9.83815 19.8969 9.96313 20.4905 10.2131C21.0998 10.4631 21.6232 10.7989 22.0606 11.2208C22.7168 11.8613 23.162 12.5956 23.3964 13.4236C23.6307 14.2516 23.7479 15.1342 23.7479 16.0716Z" fill="white"/>
<path d="M38.9034 22.0004H36.9818L33.8886 12.9314L30.725 22.0004H28.8268L25.7804 10.1428H27.7489L30.0219 19.0946L33.0449 10.2834H34.7556L37.7317 19.0946L40.0283 10.1428H41.9733L38.9034 22.0004Z" fill="white"/>
<path d="M52.4417 15.0171C52.4417 14.564 52.3792 14.1266 52.2542 13.7048C52.1292 13.2829 51.9496 12.9158 51.7152 12.6034C51.4653 12.2753 51.145 12.0175 50.7544 11.83C50.3639 11.6269 49.903 11.5254 49.3718 11.5254C48.825 11.5254 48.3485 11.6269 47.9424 11.83C47.5518 12.0331 47.2159 12.2987 46.9347 12.6268C46.6691 12.9549 46.466 13.3298 46.3254 13.7516C46.2004 14.1578 46.1301 14.5796 46.1145 15.0171H52.4417ZM54.457 16.7277H46.0676C46.0676 17.2745 46.1692 17.8213 46.3723 18.3681C46.5754 18.8993 46.8566 19.3445 47.2159 19.7039C47.7783 20.2663 48.5048 20.5475 49.3953 20.5475C50.3639 20.5475 51.0981 20.2897 51.5981 19.7742C51.7699 19.6023 51.9105 19.4227 52.0199 19.2352C52.1292 19.0477 52.223 18.7977 52.3011 18.4853H54.2461C54.168 19.079 53.9649 19.6336 53.6368 20.1491C53.3087 20.6647 52.9025 21.0865 52.4182 21.4145C51.9964 21.6957 51.5278 21.9145 51.0122 22.0707C50.4967 22.2269 49.9577 22.305 49.3953 22.305C48.5516 22.305 47.7939 22.1488 47.1222 21.8364C46.466 21.5083 45.9114 21.0708 45.4584 20.524C44.9584 19.946 44.5835 19.282 44.3335 18.5322C44.0992 17.7667 43.982 16.9621 43.982 16.1185C43.982 15.3998 44.0523 14.728 44.1929 14.1031C44.3335 13.4626 44.5679 12.8689 44.8959 12.3222C45.3177 11.6035 45.9114 11.0099 46.6769 10.5412C47.4424 10.0725 48.3407 9.83815 49.3718 9.83815C50.1373 9.83815 50.8169 9.97876 51.4106 10.26C52.0199 10.5256 52.5432 10.8927 52.9807 11.3614C53.465 11.8925 53.8399 12.5253 54.1055 13.2595C54.3711 13.9782 54.4961 14.7359 54.4804 15.5326L54.457 16.7277Z" fill="white"/>
<path d="M64.2238 12.0878C64.052 12.0566 63.8645 12.0331 63.6614 12.0175C63.474 12.0019 63.2943 11.9941 63.1224 11.9941C62.6538 11.9941 62.2241 12.0878 61.8336 12.2753C61.4586 12.4471 61.1384 12.6659 60.8728 12.9314C60.6384 13.1658 60.4432 13.4392 60.2869 13.7516C60.1463 14.0485 60.037 14.3687 59.9589 14.7124C59.8964 15.0561 59.8495 15.3998 59.8183 15.7435C59.8026 16.0872 59.7948 16.4153 59.7948 16.7277V22.0004H57.8264V10.1428H59.5839L59.748 12.2284C60.0604 11.4942 60.5369 10.9552 61.1774 10.6115C61.8336 10.2522 62.5366 10.0725 63.2865 10.0725C63.5989 10.0725 63.9114 10.0959 64.2238 10.1428V12.0878Z" fill="white"/>
<path d="M74.1135 15.0171C74.1135 14.564 74.051 14.1266 73.9261 13.7048C73.8011 13.2829 73.6214 12.9158 73.3871 12.6034C73.1371 12.2753 72.8169 12.0175 72.4263 11.83C72.0357 11.6269 71.5748 11.5254 71.0437 11.5254C70.4969 11.5254 70.0204 11.6269 69.6142 11.83C69.2236 12.0331 68.8878 12.2987 68.6065 12.6268C68.341 12.9549 68.1379 13.3298 67.9973 13.7516C67.8723 14.1578 67.802 14.5796 67.7864 15.0171H74.1135ZM76.1289 16.7277H67.7395C67.7395 17.2745 67.841 17.8213 68.0441 18.3681C68.2472 18.8993 68.5284 19.3445 68.8878 19.7039C69.4502 20.2663 70.1766 20.5475 71.0671 20.5475C72.0357 20.5475 72.77 20.2897 73.2699 19.7742C73.4418 19.6023 73.5824 19.4227 73.6917 19.2352C73.8011 19.0477 73.8948 18.7977 73.9729 18.4853H75.9179C75.8398 19.079 75.6367 19.6336 75.3087 20.1491C74.9806 20.6647 74.5744 21.0865 74.0901 21.4145C73.6683 21.6957 73.1996 21.9145 72.6841 22.0707C72.1685 22.2269 71.6295 22.305 71.0671 22.305C70.2235 22.305 69.4658 22.1488 68.794 21.8364C68.1379 21.5083 67.5833 21.0708 67.1302 20.524C66.6303 19.946 66.2553 19.282 66.0054 18.5322C65.771 17.7667 65.6539 16.9621 65.6539 16.1185C65.6539 15.3998 65.7242 14.728 65.8648 14.1031C66.0054 13.4626 66.2397 12.8689 66.5678 12.3222C66.9896 11.6035 67.5833 11.0099 68.3488 10.5412C69.1143 10.0725 70.0126 9.83815 71.0437 9.83815C71.8092 9.83815 72.4888 9.97876 73.0824 10.26C73.6917 10.5256 74.2151 10.8927 74.6525 11.3614C75.1368 11.8925 75.5118 12.5253 75.7773 13.2595C76.0429 13.9782 76.1679 14.7359 76.1523 15.5326L76.1289 16.7277Z" fill="white"/>
<path d="M87.208 16.0716C87.208 15.3217 87.1143 14.6187 86.9268 13.9625C86.7393 13.2908 86.3956 12.7362 85.8957 12.2987C85.6614 12.08 85.388 11.9003 85.0755 11.7597C84.7787 11.6035 84.4115 11.5254 83.9741 11.5254C83.318 11.5254 82.7712 11.6582 82.3337 11.9238C81.8963 12.1894 81.5526 12.5409 81.3026 12.9783C81.0527 13.4157 80.873 13.9079 80.7637 14.4546C80.6699 14.9858 80.6231 15.5248 80.6231 16.0716C80.6231 16.6184 80.6699 17.1652 80.7637 17.712C80.873 18.2431 81.0527 18.7274 81.3026 19.1649C81.5526 19.6023 81.8963 19.9538 82.3337 20.2194C82.7712 20.485 83.318 20.6178 83.9741 20.6178C84.4115 20.6178 84.7787 20.5475 85.0755 20.4069C85.388 20.2507 85.6614 20.0632 85.8957 19.8445C86.3956 19.407 86.7393 18.8602 86.9268 18.2041C87.1143 17.5323 87.208 16.8215 87.208 16.0716ZM87.3252 22.0004L87.1846 20.4537C86.8409 21.0474 86.3331 21.5083 85.6614 21.8364C84.9896 22.1488 84.3178 22.305 83.646 22.305C82.9118 22.305 82.2634 22.1957 81.701 21.977C81.1542 21.7426 80.6855 21.4224 80.295 21.0162C79.7326 20.4381 79.3029 19.7195 79.0061 18.8602C78.7249 18.001 78.5843 17.0793 78.5843 16.095C78.5843 15.0639 78.7327 14.1109 79.0295 13.2361C79.342 12.3456 79.7951 11.6113 80.3887 11.0333C80.7793 10.674 81.2401 10.3849 81.7713 10.1662C82.3181 9.94751 82.943 9.83815 83.646 9.83815C83.9741 9.83815 84.3022 9.87721 84.6303 9.95532C84.974 10.0334 85.302 10.1428 85.6145 10.2834C85.9269 10.424 86.2082 10.6037 86.4581 10.8224C86.7237 11.0255 86.9346 11.2598 87.0908 11.5254V5.08105H89.0827V22.0004H87.3252Z" fill="white"/>
<path d="M107.296 16.0716C107.296 15.5248 107.241 14.9858 107.131 14.4546C107.038 13.9079 106.866 13.4157 106.616 12.9783C106.366 12.5409 106.022 12.1894 105.585 11.9238C105.147 11.6582 104.601 11.5254 103.944 11.5254C103.507 11.5254 103.132 11.6035 102.82 11.7597C102.523 11.9003 102.257 12.08 102.023 12.2987C101.523 12.7362 101.179 13.2908 100.992 13.9625C100.804 14.6187 100.711 15.3217 100.711 16.0716C100.711 16.8215 100.804 17.5323 100.992 18.2041C101.179 18.8602 101.523 19.407 102.023 19.8445C102.257 20.0632 102.523 20.2507 102.82 20.4069C103.132 20.5475 103.507 20.6178 103.944 20.6178C104.601 20.6178 105.147 20.485 105.585 20.2194C106.022 19.9538 106.366 19.6023 106.616 19.1649C106.866 18.7274 107.038 18.2431 107.131 17.712C107.241 17.1652 107.296 16.6184 107.296 16.0716ZM109.334 16.095C109.334 17.0793 109.186 18.001 108.889 18.8602C108.608 19.7195 108.186 20.4381 107.624 21.0162C107.233 21.4224 106.757 21.7426 106.194 21.977C105.647 22.1957 105.007 22.305 104.273 22.305C103.601 22.305 102.929 22.1488 102.257 21.8364C101.585 21.5083 101.078 21.0474 100.734 20.4537L100.593 22.0004H98.8358V5.08105H100.828V11.5254C100.984 11.2598 101.187 11.0255 101.437 10.8224C101.703 10.6037 101.992 10.424 102.304 10.2834C102.617 10.1428 102.937 10.0334 103.265 9.95532C103.609 9.87721 103.944 9.83815 104.273 9.83815C104.976 9.83815 105.593 9.94751 106.124 10.1662C106.671 10.3849 107.139 10.674 107.53 11.0333C108.123 11.6113 108.569 12.3456 108.866 13.2361C109.178 14.1109 109.334 15.0639 109.334 16.095Z" fill="white"/>
<path d="M116.343 24.4375C116.062 25.203 115.679 25.8123 115.195 26.2654C114.71 26.7341 114.023 26.9684 113.132 26.9684C112.632 26.9684 112.226 26.9371 111.914 26.8747C111.601 26.8122 111.406 26.7653 111.328 26.7341V24.9999C111.453 25.0312 111.594 25.0624 111.75 25.0937C111.875 25.1249 112.015 25.1484 112.172 25.164C112.343 25.1796 112.531 25.1874 112.734 25.1874C113.156 25.1874 113.515 25.1015 113.812 24.9296C114.109 24.7578 114.343 24.4453 114.515 23.9923L115.265 22.0004L110.531 10.1428H112.781L116.273 19.493L119.6 10.1428H121.686L116.343 24.4375Z" fill="white"/>
<g clip-path="url(#clip0_1589_344)">
<path d="M129.118 0.554688L141.12 25.4456L146.872 19.6847L137.64 0.554688H129.118V0.554688Z" fill="white"/>
<path d="M146.09 0.554688L158.092 25.4456L163.844 19.6847L154.612 0.554688H146.09V0.554688Z" fill="white"/>
<path d="M170.877 25.4456V8.55771L178.405 0.554688V25.4456H170.877Z" fill="white"/>
<path d="M185.593 25.4456V8.55771L193.121 0.554688V25.4456H185.593Z" fill="white"/>
<path d="M200.372 0.554688V22.8576L207.839 14.9615V0.554688H200.372V0.554688Z" fill="white"/>
<path d="M218.274 13.0475L230.097 25.4456H221.531L209.799 13.0002L221.561 0.554688H230.097L218.274 13.0475V13.0475Z" fill="white"/>
</g>
<defs>
<clipPath id="clip0_1589_344">
<rect width="100.862" height="25.2156" fill="white" transform="translate(129.121 0.564453)"/>
</clipPath>
</defs>
</svg>
