<svg fill="none" height="117" viewBox="0 0 340 117" width="340" xmlns="http://www.w3.org/2000/svg" xmlns:xlink="http://www.w3.org/1999/xlink"><clipPath id="a"><path d="m194 0h146v40h-146z"/></clipPath><g fill="#fff"><path d="m3.08695 11.8075v7.4394h10.62765v2.7052h-10.62765v10.048h-2.866247v-22.83339h14.782097v2.64079z"/><path d="m28.8596 23.8522c0-.9661-.1074-1.9001-.3221-2.8018-.2147-.9018-.6119-1.6532-1.1916-2.2544-.3435-.3435-.7622-.6226-1.256-.8373-.4723-.2147-1.0305-.3221-1.6746-.3221s-1.2131.1074-1.7069.3221c-.4724.2147-.8803.4938-1.2238.8373-.5797.6012-.9769 1.3526-1.1916 2.2544-.2147.9017-.322 1.8357-.322 2.8018 0 .9662.1073 1.9001.322 2.8019.2147.9017.6119 1.6532 1.1916 2.2543.3435.3435.7514.6226 1.2238.8373.4938.2147 1.0628.3221 1.7069.3221s1.2023-.1074 1.6746-.3221c.4938-.2147.9125-.4938 1.256-.8373.5797-.6011.9769-1.3526 1.1916-2.2543.2147-.9018.3221-1.8357.3221-2.8019zm2.8018 0c0 1.2882-.161 2.5013-.4831 3.6392-.322 1.1379-.9339 2.147-1.8357 3.0273-.6011.5797-1.3204 1.0413-2.1577 1.3848-.8159.3435-1.7391.5153-2.7696.5153-1.0306 0-1.9646-.1718-2.8019-.5153-.8158-.3435-1.5244-.8051-2.1255-1.3848-.9018-.8803-1.5137-1.8894-1.8357-3.0273-.3221-1.1379-.4831-2.351-.4831-3.6392s.161-2.5012.4831-3.6392c.322-1.1379.9339-2.147 1.8357-3.0272.6011-.5797 1.3097-1.0413 2.1255-1.3848.8373-.3436 1.7713-.5153 2.8019-.5153 1.0305 0 1.9537.1717 2.7696.5153.8373.3435 1.5566.8051 2.1577 1.3848.9018.8802 1.5137 1.8893 1.8357 3.0272.3221 1.138.4831 2.351.4831 3.6392z"/><path d="m41.6326 32.0001c-.1288.0429-.2898.0751-.483.0966-.3221.0644-.8052.0966-1.4493.0966-1.2023 0-2.0718-.3435-2.6086-1.0305-.5367-.6871-.8051-1.6747-.8051-2.9629v-19.45185h2.7374v19.29085c0 .5582.1074.9769.3221 1.256s.6011.4186 1.1594.4186h.9017c.0859 0 .161-.0107.2254-.0322z"/><path d="m51.0048 32.0001c-.1288.0429-.2898.0751-.4831.0966-.322.0644-.8051.0966-1.4492.0966-1.2023 0-2.0719-.3435-2.6086-1.0305-.5368-.6871-.8051-1.6747-.8051-2.9629v-19.45185h2.7374v19.29085c0 .5582.1074.9769.3221 1.256s.6011.4186 1.1593.4186h.9018c.0859 0 .161-.0107.2254-.0322z"/><path d="m65.4047 23.8522c0-.9661-.1073-1.9001-.322-2.8018-.2147-.9018-.6119-1.6532-1.1916-2.2544-.3435-.3435-.7622-.6226-1.256-.8373-.4723-.2147-1.0305-.3221-1.6747-.3221-.6441 0-1.213.1074-1.7068.3221-.4724.2147-.8803.4938-1.2238.8373-.5797.6012-.9769 1.3526-1.1916 2.2544-.2147.9017-.322 1.8357-.322 2.8018 0 .9662.1073 1.9001.322 2.8019.2147.9017.6119 1.6532 1.1916 2.2543.3435.3435.7514.6226 1.2238.8373.4938.2147 1.0627.3221 1.7068.3221.6442 0 1.2024-.1074 1.6747-.3221.4938-.2147.9125-.4938 1.256-.8373.5797-.6011.9769-1.3526 1.1916-2.2543.2147-.9018.322-1.8357.322-2.8019zm2.8019 0c0 1.2882-.161 2.5013-.4831 3.6392-.322 1.1379-.9339 2.147-1.8357 3.0273-.6011.5797-1.3204 1.0413-2.1577 1.3848-.8159.3435-1.7391.5153-2.7697.5153-1.0305 0-1.9645-.1718-2.8018-.5153-.8159-.3435-1.5244-.8051-2.1255-1.3848-.9018-.8803-1.5137-1.8894-1.8357-3.0273-.3221-1.1379-.4831-2.351-.4831-3.6392s.161-2.5012.4831-3.6392c.322-1.1379.9339-2.147 1.8357-3.0272.6011-.5797 1.3096-1.0413 2.1255-1.3848.8373-.3436 1.7713-.5153 2.8018-.5153 1.0306 0 1.9538.1717 2.7697.5153.8373.3435 1.5566.8051 2.1577 1.3848.9018.8802 1.5137 1.8893 1.8357 3.0272.3221 1.138.4831 2.351.4831 3.6392z"/><path d="m89.0347 32.0001h-2.6408l-4.2511-12.4634-4.3477 12.4634h-2.6086l-4.1866-16.2958h2.7052l3.1239 12.3024 4.1544-12.1091h2.351l4.0901 12.1091 3.1561-12.3024h2.673z"/><path d="m115.252 32.0001-.226-2.4798c-.429.9447-1.105 1.6639-2.028 2.1578-.902.4723-1.836.7085-2.802.7085-1.868 0-3.264-.5261-4.187-1.5781s-1.385-2.5227-1.385-4.4121v-10.6921h2.738v10.3057c0 1.2238.257 2.1792.773 2.8662.515.6871 1.417 1.0306 2.705 1.0306.558 0 1.052-.1074 1.481-.3221.451-.2361.859-.5367 1.224-.9017.515-.5368.87-1.2131 1.063-2.0289.193-.8159.29-1.6425.29-2.4798v-8.47h2.737v16.2958z"/><path d="m135.703 27.266c0 .7085-.118 1.3418-.354 1.9001-.236.5367-.548 1.009-.934 1.417-.623.6441-1.396 1.1164-2.319 1.417-.923.2791-1.921.4187-2.995.4187-1.03 0-1.997-.1396-2.898-.4187-.902-.2576-1.697-.73-2.384-1.417-.493-.4938-.88-1.0628-1.159-1.7069-.279-.6656-.419-1.3419-.419-2.0289h2.738c.021.5582.15 1.052.386 1.4814.236.408.548.7622.934 1.0628.365.2791.816.4723 1.353.5797.537.1073 1.063.161 1.578.161.558 0 1.084-.0537 1.578-.161.515-.1288.988-.3757 1.417-.7407.236-.1718.429-.4187.58-.7408.15-.322.225-.6655.225-1.0305 0-.6226-.215-1.1379-.644-1.5459-.429-.4079-1.063-.6655-1.9-.7729-.172-.0214-.408-.0537-.709-.0966-.3-.0429-.622-.0859-.966-.1288-.343-.043-.698-.0859-1.063-.1288-.343-.043-.654-.0859-.933-.1289-1.224-.1932-2.201-.6548-2.931-1.3848-.709-.7514-1.063-1.7498-1.063-2.995 0-.6227.129-1.2131.387-1.7713.279-.5797.601-1.0521.966-1.417.536-.5583 1.213-.9984 2.029-1.3204.815-.3221 1.739-.4831 2.769-.4831 1.095 0 2.094.1717 2.995.5153.902.3435 1.632.8588 2.19 1.5458.365.4294.644.891.838 1.3848.214.4938.322 1.0735.322 1.7391h-2.738c-.021-.4294-.129-.8159-.322-1.1594-.172-.365-.376-.6548-.612-.8695-.644-.5797-1.535-.8696-2.673-.8696-.322 0-.622.0108-.901.0322-.28.0215-.612.1181-.999.2899-.515.2147-.923.526-1.224.9339-.279.3865-.418.8052-.418 1.256 0 .6871.193 1.1916.579 1.5137.387.3005.924.5045 1.611.6119.451.0644.998.1395 1.642.2254.644.0644 1.406.1718 2.287.322 1.159.1933 2.136.6871 2.93 1.4815.816.7944 1.224 1.8035 1.224 3.0273z"/><path d="m158.277 23.8522c0-.9661-.107-1.9001-.322-2.8018-.214-.9018-.612-1.6532-1.191-2.2544-.344-.3435-.762-.6226-1.256-.8373-.473-.2147-1.031-.3221-1.675-.3221s-1.213.1074-1.707.3221c-.472.2147-.88.4938-1.224.8373-.579.6012-.976 1.3526-1.191 2.2544-.215.9017-.322 1.8357-.322 2.8018 0 .9662.107 1.9001.322 2.8019.215.9017.612 1.6532 1.191 2.2543.344.3435.752.6226 1.224.8373.494.2147 1.063.3221 1.707.3221s1.202-.1074 1.675-.3221c.494-.2147.912-.4938 1.256-.8373.579-.6011.977-1.3526 1.191-2.2543.215-.9018.322-1.8357.322-2.8019zm2.802 0c0 1.2882-.161 2.5013-.483 3.6392s-.934 2.147-1.836 3.0273c-.601.5797-1.32 1.0413-2.157 1.3848-.816.3435-1.739.5153-2.77.5153s-1.964-.1718-2.802-.5153c-.816-.3435-1.524-.8051-2.125-1.3848-.902-.8803-1.514-1.8894-1.836-3.0273s-.483-2.351-.483-3.6392.161-2.5012.483-3.6392c.322-1.1379.934-2.147 1.836-3.0272.601-.5797 1.309-1.0413 2.125-1.3848.838-.3436 1.771-.5153 2.802-.5153s1.954.1717 2.77.5153c.837.3435 1.556.8051 2.157 1.3848.902.8802 1.514 1.8893 1.836 3.0272.322 1.138.483 2.351.483 3.6392z"/><path d="m176.235 32.0001v-10.3378c0-1.2238-.279-2.1792-.837-2.8663-.537-.687-1.449-1.0305-2.737-1.0305-.795 0-1.493.2361-2.094.7085-.601.4508-1.084 1.052-1.449 1.8035-.279.6011-.451 1.2882-.515 2.0611-.043.7729-.065 1.4707-.065 2.0933v7.5682h-2.737v-16.2958h2.383l.226 2.4476c.214-.4723.504-.8802.869-1.2238.365-.365.773-.6655 1.224-.9017s.923-.4187 1.417-.5475.966-.1932 1.417-.1932c1.868 0 3.274.526 4.219 1.578.945 1.0521 1.417 2.5228 1.417 4.4121v10.7243z"/><path d="m207.914 114.236c25.876-10.175 45.893-31.1593 59.675-54.8444.079.3361.135.6716.192 1.007-.487 7.3724-.997 14.7664-1.484 22.1387-.151 2.1092 2.993 2.5591 3.607.5972 2.407-7.6266 2.961-14.9969 1.606-22.5133.232-3.3083.465-6.6166.697-9.9249.119-1.7764-1.976-2.3506-3.16-1.4292-9.285 7.1319-17.77 14.9998-25.352 23.9181-1.59 1.866 1.016 4.725 2.651 2.8159 5.758-6.6366 11.856-12.7735 18.452-18.4505-12.943 24.6224-33.448 41.8323-57.45 55.5554-.724.402-.13 1.376.589 1.108z"/><g clip-path="url(#a)" clip-rule="evenodd" fill-rule="evenodd"><path d="m194.896 33.0493h15.864v-5.2257h-10.123v-19.93749h-5.741z"/><path d="m218.792 33.0493v-17.3316h-5.742v17.3316zm-2.871-19.698c2.002 0 3.249-1.3309 3.249-2.9952-.038-1.70017-1.247-2.99364-3.211-2.99364s-3.248 1.29347-3.248 2.99364c0 1.6643 1.246 2.9952 3.173 2.9952z"/><path d="m221.458 33.0493h5.742v-9.679c0-.518.037-1.0355.189-1.4058.415-1.0344 1.359-2.1063 2.946-2.1063 2.077 0 2.909 1.5899 2.909 3.9183v9.2728h5.741v-9.938c0-5.3236-2.833-7.8008-6.611-7.8008-3.097 0-4.457 1.7371-5.213 2.9203h.039v-2.5131h-5.742c.076 1.6263 0 17.3316 0 17.3316z"/><path d="m247.084 7.88611h-5.742v25.16319h5.742v-5.619l1.435-1.8125 4.495 7.4315h7.063l-7.554-10.7586 6.61-7.3197h-6.912s-4.721 6.5489-5.137 7.3254z"/><path d="m275.432 25.8197c.076-.4452.189-1.2991.189-2.2644 0-4.4804-2.267-9.0286-8.234-9.0286-6.384 0-9.33 5.0657-9.33 9.66 0 5.6827 3.588 9.2318 9.858 9.2318 2.493 0 4.797-.3693 6.686-1.1458l-.756-3.8045c-1.548.5154-3.135.7729-5.099.7729-2.681 0-5.023-1.1042-5.212-3.4583l11.898.0359zm-11.936-3.8973c.151-1.4792 1.133-3.661 3.589-3.661 2.605 0 3.21 2.33 3.21 3.661z"/><path d="m289.793 7.88614v8.71066h-.075c-.831-1.2191-2.569-2.0325-4.873-2.0325-4.42 0-8.31 3.5491-8.272 9.6118 0 5.6201 3.513 9.28 7.894 9.28 2.38 0 4.646-1.0355 5.779-3.0322h.114l.226 2.6254h5.1c-.076-1.2201-.152-3.3275-.152-5.3975v-19.76566zm0 17.14076c0 .4432-.038.8873-.113 1.2566-.34 1.5899-1.7 2.6987-3.362 2.6987-2.379 0-3.928-1.9222-3.928-4.9538 0-2.8465 1.322-5.1385 3.966-5.1385 1.775 0 3.022 1.2196 3.362 2.7351.075.3334.075.7032.075 1.0355z"/><path d="m301.309 3.64769c0-1.51811 1.258-2.749527 2.809-2.749527h32.396c1.551 0 2.809 1.231417 2.809 2.749527v32.88401c0 1.5186-1.258 2.7495-2.809 2.7495h-32.396c-1.551 0-2.809-1.2309-2.809-2.7495zm11.523 29.38111v-17.3321h-5.742v17.3321zm-2.871-19.6985c2.003 0 3.249-1.3309 3.249-2.9941-.038-1.70074-1.246-2.99473-3.211-2.99473-1.964 0-3.248 1.29399-3.248 2.99473 0 1.6632 1.246 2.9941 3.173 2.9941zm11.79 19.6985h-5.742s.076-15.7057 0-17.3321h5.742v2.4539c.763-1.181 2.129-2.8606 5.174-2.8606 3.778 0 6.611 2.4772 6.611 7.8009v9.9379h-5.741v-9.2722c0-2.33-.832-3.9194-2.909-3.9194-1.586 0-2.531 1.0719-2.946 2.1069-.152.3703-.189.8878-.189 1.4058zm0-14.8782v.0597h-.038c.012-.0197.025-.0396.038-.0597z"/></g></g></svg>