<svg fill="none" height="168" viewBox="0 0 146 168" width="146" xmlns="http://www.w3.org/2000/svg" xmlns:xlink="http://www.w3.org/1999/xlink"><clipPath id="a"><path d="m0 128h146v40h-146z"/></clipPath><g fill="#2767b2"><path d="m51.4404 37.9121c.2886-.6347-.6457-1.0793-.975-.4639-11.8245 21.5093-6.6019 45.9124-.4587 68.2758-2.403-1.991-4.771-4.027-7.0839-6.1485-1.3602-1.2325-3.0748.8655-1.856 2.1305 3.7835 3.918 7.5572 7.855 11.3356 11.758.7342.748 1.7473.246 2.1361-.54.4834.367.9517.739 1.4299 1.091.6869.514 1.8449.429 2.2277-.472 2.2323-5.251 4.0344-10.521 5.075-16.128.3111-1.6951-2.2221-2.1533-2.6347-.5065-1.1992 4.7095-2.5564 9.2565-4.3542 13.7565-.8955-.675-1.7963-1.365-2.6818-2.061-7.1013-23.267-12.4171-47.3035-2.1652-70.7068z"/><path d="m7.70508 17v-15.45229h10.24982v2.98862h-6.8849v3.16573h5.8666v2.96644h-5.8666v6.3315z"/><path d="m24.4797 17.2656c-.856 0-1.6234-.1402-2.3023-.4206-.6641-.2804-1.2323-.6863-1.7046-1.2176-.4575-.5313-.8117-1.1733-1.0626-1.926s-.3764-1.5939-.3764-2.5237.1255-1.77102.3764-2.52371.6051-1.38731 1.0626-1.90386c.4723-.53131 1.0405-.93718 1.7046-1.21759.6789-.28041 1.4463-.42062 2.3023-.42062s1.6161.14021 2.2803.42062c.6789.28041 1.2471.68628 1.7046 1.21759.4723.51655.8338 1.15117 1.0847 1.90386s.3764 1.59391.3764 2.52371-.1255 1.771-.3764 2.5237-.6124 1.3947-1.0847 1.926c-.4575.5313-1.0257.9372-1.7046 1.2176-.6642.2804-1.4243.4206-2.2803.4206zm0-2.5901c.6494 0 1.1512-.1992 1.5054-.5977s.5313-.9667.5313-1.7046v-2.3688c0-.73793-.1771-1.30614-.5313-1.70462s-.856-.59772-1.5054-.59772c-.6493 0-1.1511.19924-1.5053.59772s-.5313.96669-.5313 1.70462v2.3688c0 .7379.1771 1.3061.5313 1.7046s.856.5977 1.5053.5977z"/><path d="m35.5145 17c-1.1217 0-1.9482-.273-2.4795-.8191-.5165-.5461-.7748-1.3357-.7748-2.3688v-13.19418h3.2764v13.83618h1.4611v2.5459z"/><path d="m42.0434 17c-1.1216 0-1.9481-.273-2.4794-.8191-.5166-.5461-.7748-1.3357-.7748-2.3688v-13.19418h3.2764v13.83618h1.4611v2.5459z"/><path d="m50.2064 17.2656c-.856 0-1.6234-.1402-2.3023-.4206-.6641-.2804-1.2323-.6863-1.7046-1.2176-.4575-.5313-.8117-1.1733-1.0626-1.926s-.3764-1.5939-.3764-2.5237.1255-1.77102.3764-2.52371.6051-1.38731 1.0626-1.90386c.4723-.53131 1.0405-.93718 1.7046-1.21759.6789-.28041 1.4463-.42062 2.3023-.42062s1.6161.14021 2.2802.42062c.6789.28041 1.2472.68628 1.7047 1.21759.4722.51655.8338 1.15117 1.0847 1.90386s.3764 1.59391.3764 2.52371-.1255 1.771-.3764 2.5237-.6125 1.3947-1.0847 1.926c-.4575.5313-1.0258.9372-1.7047 1.2176-.6641.2804-1.4242.4206-2.2802.4206zm0-2.5901c.6494 0 1.1512-.1992 1.5054-.5977s.5313-.9667.5313-1.7046v-2.3688c0-.73793-.1771-1.30614-.5313-1.70462s-.856-.59772-1.5054-.59772c-.6493 0-1.1511.19924-1.5053.59772s-.5313.96669-.5313 1.70462v2.3688c0 .7379.1771 1.3061.5313 1.7046s.856.5977 1.5053.5977z"/><path d="m56.6638 5.37757h3.1657l1.1291 4.69323.7969 3.5421h.0886l.9298-3.5421 1.3282-4.69323h2.9887l1.3504 4.69323.9519 3.5421h.0886l.7969-3.5421 1.1291-4.69323h3.0329l-3.21 11.62243h-3.4314l-1.4168-4.9146-.8192-3.01079h-.0664l-.7969 3.01079-1.4169 4.9146h-3.3649z"/><path d="m81.6165 17v-11.62243h3.2765v1.97028h.1328c.2066-.61986.5608-1.14379 1.0626-1.57179.5018-.44276 1.1881-.66414 2.0588-.66414.797 0 1.4759.19924 2.0367.59772.5608.39849.9667.98145 1.2176 1.7489h.0664c.1033-.32469.2583-.62724.4649-.90766.2214-.29517.487-.54606.797-.75269.3099-.20662.6567-.36896 1.0405-.48703.3837-.13283.7969-.19924 1.2397-.19924 1.1216 0 1.9776.39848 2.568 1.19545.6051.79696.9076 1.93338.9076 3.40924v7.28339h-3.2764v-7.01774c0-1.47586-.5313-2.21379-1.5939-2.21379-.487 0-.9298.14021-1.3283.42062-.3985.28042-.5977.70842-.5977 1.284v7.52691h-3.2764v-7.01774c0-1.47586-.5313-2.21379-1.594-2.21379-.2361 0-.4722.0369-.7084.11069-.2213.05904-.428.16235-.6198.30993-.1771.14759-.3247.33207-.4428.55345-.1033.20662-.1549.45014-.1549.73055v7.52691z"/><path d="m106.246 17.2656c-.885 0-1.675-.1402-2.369-.4206-.693-.2952-1.284-.701-1.771-1.2176-.472-.5313-.833-1.1733-1.084-1.926-.237-.7527-.355-1.5939-.355-2.5237 0-.915.118-1.7415.355-2.47944.236-.75269.583-1.39469 1.04-1.926.472-.53131 1.048-.93717 1.727-1.21758.679-.29517 1.454-.44276 2.324-.44276.96 0 1.779.16234 2.458.48703.693.32469 1.254.76007 1.682 1.30614.443.54607.76 1.18069.952 1.90386.207.70842.31 1.45375.31 2.23595v.9741h-7.46v.1771c0 .7674.206 1.3799.619 1.8374.414.4428 1.063.6641 1.949.6641.678 0 1.232-.1328 1.66-.3984.428-.2805.826-.6125 1.195-.9962l1.639 2.0366c-.517.6051-1.196 1.0774-2.037 1.4169-.827.3394-1.771.5091-2.834.5091zm-.066-9.74065c-.664 0-1.188.22138-1.572.66414-.369.428-.553 1.00359-.553 1.72676v.17715h4.073v-.19929c0-.70841-.162-1.27662-.487-1.70462-.31-.44276-.797-.66414-1.461-.66414z"/><g clip-path="url(#a)" clip-rule="evenodd" fill-rule="evenodd"><path d="m.895508 161.049h15.864292v-5.226h-10.1232v-19.937h-5.741092z"/><path d="m24.792 161.049v-17.332h-5.7416v17.332zm-2.8708-19.698c2.0022 0 3.2484-1.331 3.2484-2.995-.0373-1.701-1.2462-2.994-3.2102-2.994-1.9643 0-3.2485 1.293-3.2485 2.994 0 1.664 1.246 2.995 3.1728 2.995z"/><path d="m27.458 161.049h5.7417v-9.679c0-.518.0373-1.036.1891-1.406.4148-1.034 1.3595-2.106 2.9457-2.106 2.0779 0 2.909 1.59 2.909 3.918v9.273h5.7411v-9.938c0-5.324-2.8329-7.801-6.6104-7.801-3.0972 0-4.4572 1.737-5.2128 2.92h.0384v-2.513h-5.7417c.0754 1.627-.0001 17.332-.0001 17.332z"/><path d="m53.0837 135.886h-5.7419v25.163h5.7419v-5.619l1.4349-1.813 4.4951 7.432h7.0632l-7.5541-10.759 6.6102-7.32h-6.9123s-4.7215 6.549-5.137 7.326z"/><path d="m81.4322 153.819c.0754-.445.189-1.299.189-2.264 0-4.481-2.2668-9.029-8.2346-9.029-6.3838 0-9.33 5.066-9.33 9.66 0 5.683 3.5884 9.232 9.8587 9.232 2.4931 0 4.7969-.369 6.6858-1.146l-.7558-3.804c-1.5484.515-3.1349.773-5.0989.773-2.6819 0-5.0236-1.105-5.2127-3.459l11.8985.036zm-11.936-3.897c.151-1.479 1.1332-3.661 3.5884-3.661 2.6057 0 3.2105 2.33 3.2105 3.661z"/><path d="m95.7932 135.886v8.71h-.0754c-.8312-1.219-2.5691-2.032-4.8725-2.032-4.4198 0-8.3102 3.549-8.2728 9.612 0 5.62 3.5131 9.28 7.8946 9.28 2.3796 0 4.6459-1.036 5.7791-3.033h.1136l.2266 2.626h5.0996c-.076-1.22-.152-3.328-.152-5.398v-19.765zm0 17.14c0 .444-.0378.888-.1136 1.257-.3395 1.59-1.6997 2.699-3.3613 2.699-2.3798 0-3.9285-1.923-3.9285-4.954 0-2.847 1.3223-5.139 3.966-5.139 1.7751 0 3.0218 1.22 3.362 2.736.0754.333.0754.703.0754 1.035z"/><path d="m107.309 131.647c0-1.518 1.257-2.749 2.809-2.749h32.395c1.552 0 2.809 1.231 2.809 2.749v32.884c0 1.519-1.257 2.75-2.809 2.75h-32.395c-1.552 0-2.809-1.231-2.809-2.75zm11.523 29.381v-17.332h-5.742v17.332zm-2.871-19.698c2.002 0 3.248-1.331 3.248-2.994-.037-1.701-1.246-2.995-3.21-2.995s-3.248 1.294-3.248 2.995c0 1.663 1.246 2.994 3.172 2.994zm11.789 19.698h-5.741s.075-15.705 0-17.332h5.742v2.454c.763-1.181 2.128-2.86 5.174-2.86 3.778 0 6.61 2.477 6.61 7.8v9.938h-5.741v-9.272c0-2.33-.831-3.919-2.909-3.919-1.586 0-2.531 1.072-2.946 2.107-.151.37-.189.887-.189 1.405zm.001-14.878v.06h-.039c.013-.02.026-.04.039-.06z"/></g></g></svg>