<svg width="348" height="40" viewBox="0 0 348 40" fill="none" xmlns="http://www.w3.org/2000/svg">
<g clip-path="url(#clip0_1589_579)">
<path d="M6.22737 27.7867C5.63845 27.0154 5.34302 25.8283 5.34302 24.2226V10.9683H11.7563V9.31H5.34302V4.24287H4.31733L3.31323 8.98267L0.0761719 9.84992V10.9674H3.31323V24.4926C3.31323 26.6118 3.7716 28.1657 4.68932 29.1553C5.60705 30.1439 7.03222 30.6386 8.96189 30.6386C10.2222 30.6386 11.3342 30.4844 12.2991 30.1758V28.6342C11.3607 28.8411 10.2624 28.9427 9.00115 28.9427C7.74186 28.9427 6.81726 28.558 6.22737 27.7867V27.7867ZM33.8543 30.253V16.5556C33.8543 11.4565 31.374 8.90648 26.4153 8.90648C24.5661 8.90648 23.0183 9.18866 21.7717 9.75398C20.5252 10.3193 19.4926 11.2308 18.675 12.4902H18.5347L18.6348 9.8123V0.273438H16.6452V30.253H18.6348V18.6927C18.6348 15.8549 19.2414 13.8024 20.4545 12.5373C21.6677 11.2721 23.5807 10.6391 26.1945 10.6391C28.1379 10.6391 29.5719 11.1188 30.4965 12.0745C31.422 13.032 31.8834 14.5634 31.8834 16.6704V30.253H33.8543V30.253ZM55.7932 20.0416V18.5008C55.7932 15.5463 55.0502 13.2089 53.5622 11.4866C52.0742 9.76527 50.0435 8.90554 47.4699 8.90554C44.5617 8.90554 42.2492 9.91106 40.5335 11.9202C38.8178 13.9313 37.9609 16.6055 37.9609 19.9456C37.9609 23.3234 38.8482 25.9506 40.6248 27.8252C42.4013 29.7008 44.8767 30.6377 48.053 30.6377C49.3132 30.6377 50.4655 30.5455 51.5109 30.3593C52.5562 30.173 53.6957 29.8231 54.9285 29.3095V27.575C53.4817 28.1272 52.2853 28.4874 51.3401 28.6539C50.3958 28.8213 49.2995 28.9051 48.0539 28.9051C45.4931 28.9051 43.5262 28.1469 42.152 26.6306C40.7779 25.1162 40.0781 22.9189 40.0516 20.0416H55.7932V20.0416ZM53.683 18.3456H40.1713C40.3853 15.8417 41.1293 13.9247 42.4033 12.5947C43.6754 11.2656 45.3646 10.6005 47.4689 10.6005C49.4124 10.6005 50.9337 11.2853 52.033 12.653C53.1323 14.0206 53.682 15.9188 53.682 18.3456H53.683ZM73.8326 30.2915C74.8446 30.0601 75.8467 29.6425 76.839 29.0396V24.0101C75.833 24.6534 74.8279 25.1247 73.8228 25.4266C72.8177 25.7286 71.7253 25.8791 70.5465 25.8791C67.3565 25.8791 65.7606 23.773 65.7606 19.56C65.7606 15.219 67.3556 13.048 70.5465 13.048C71.3769 13.048 72.2072 13.1666 73.0396 13.4045C73.8699 13.6416 74.767 13.9473 75.7328 14.3198L77.5428 9.77279C75.4777 8.79642 73.1456 8.30824 70.5455 8.30824C66.9934 8.30824 64.2667 9.27426 62.3635 11.2082C60.4594 13.1412 59.5083 15.9376 59.5083 19.5985C59.5083 26.9589 63.0064 30.6386 70.0027 30.6386C71.5437 30.6386 72.8207 30.5229 73.8326 30.2915V30.2915ZM101.761 19.4443C101.761 17.184 101.319 15.2124 100.434 13.5296C99.5495 11.8469 98.2823 10.5563 96.6344 9.65709C94.9854 8.75786 93.0822 8.30824 90.9239 8.30824C87.4532 8.30824 84.7589 9.28461 82.842 11.2364C80.9251 13.1891 79.9671 15.9254 79.9671 19.4443C79.9671 21.7055 80.4088 23.6827 81.2941 25.3796C82.1795 27.0737 83.4456 28.3746 85.0936 29.2804C86.7426 30.1852 88.6457 30.6386 90.8041 30.6386C94.2483 30.6386 96.9357 29.65 98.8663 27.6719C100.796 25.6928 101.761 22.9509 101.761 19.4443V19.4443ZM95.4889 19.4443C95.4889 21.5889 95.1297 23.2049 94.4132 24.2904C93.6957 25.3758 92.5188 25.9176 90.8836 25.9176C89.2356 25.9176 88.046 25.3721 87.3158 24.281C86.5846 23.1889 86.2194 21.5767 86.2194 19.4443C86.2194 17.2997 86.5816 15.6968 87.305 14.6377C88.0293 13.5776 89.2091 13.048 90.8444 13.048C92.4933 13.048 93.678 13.5814 94.4024 14.6471C95.1267 15.7138 95.4879 17.3119 95.4879 19.4443H95.4889ZM126.094 30.253V0.274378H119.942V7.17197C119.942 8.43052 120.096 9.86215 120.404 11.4678H120.203C118.715 9.3608 116.557 8.30824 113.73 8.30824C111.035 8.30824 108.92 9.29401 107.386 11.2656C105.851 13.2371 105.084 15.9894 105.084 19.5214C105.084 23.0017 105.838 25.7258 107.346 27.6907C108.853 29.6566 110.928 30.6386 113.569 30.6386C116.423 30.6386 118.547 29.5785 119.942 27.4593H120.203L121.389 30.253H126.094V30.253ZM120.364 20.1958C120.297 22.2897 119.897 23.773 119.167 24.6469C118.436 25.5198 117.288 25.9562 115.719 25.9562C114.299 25.9562 113.206 25.4266 112.443 24.3666C111.678 23.3074 111.296 21.7178 111.296 19.5985C111.296 17.4793 111.675 15.8643 112.432 14.7534C113.19 13.6416 114.252 13.0866 115.619 13.0866C117.294 13.0866 118.505 13.587 119.248 14.5888C119.992 15.5915 120.364 17.2479 120.364 19.56V20.1958V20.1958ZM150.907 20.9474V18.0954C150.907 15.0384 150.022 12.6436 148.253 10.9091C146.484 9.17455 144.012 8.30824 140.835 8.30824C137.51 8.30824 134.907 9.29401 133.024 11.2656C131.142 13.2371 130.199 16.0279 130.199 19.6371C130.199 23.1437 131.217 25.8546 133.255 27.7678C135.292 29.682 138.12 30.6386 141.739 30.6386C143.495 30.6386 144.983 30.5135 146.203 30.2624C147.395 30.0215 148.55 29.6365 149.64 29.1167V24.5697C148.327 25.1604 147.067 25.5903 145.861 25.8603C144.601 26.1356 143.313 26.2713 142.021 26.2647C140.279 26.2647 138.925 25.7963 137.959 24.8585C136.995 23.9207 136.478 22.617 136.412 20.9474H150.907ZM145.158 17.0363H136.552C136.66 15.5849 137.082 14.4637 137.819 13.6745C138.555 12.8844 139.576 12.4893 140.874 12.4893C142.175 12.4893 143.207 12.8844 143.971 13.6745C144.736 14.4646 145.13 15.5849 145.158 17.0363ZM170.103 29.6557V27.8835C168.4 28.5646 166.557 28.9051 164.573 28.9051C162.094 28.9051 160.164 28.1055 158.783 26.5065C157.403 24.9074 156.712 22.6941 156.712 19.8685C156.712 16.8886 157.403 14.6057 158.783 13.0189C160.164 11.433 162.194 10.6391 164.876 10.6391C166.269 10.6391 167.911 10.941 169.801 11.5449L170.344 9.84992C168.61 9.21968 166.77 8.89959 164.916 8.90554C161.726 8.90554 159.213 9.8725 157.377 11.8045C155.539 13.7385 154.622 16.439 154.622 19.9071C154.622 23.2848 155.507 25.9176 157.276 27.8064C159.045 29.6942 161.491 30.6377 164.614 30.6377C166.879 30.6377 168.708 30.3113 170.103 29.6557V29.6557ZM190.048 30.253V16.3233C190.048 13.793 189.454 11.9306 188.268 10.736C187.082 9.5414 185.289 8.9441 182.889 8.9441C180.544 8.9441 178.172 9.48402 175.772 10.562L176.517 12.2193C178.688 11.1405 180.786 10.6015 182.81 10.6015C184.686 10.6015 186.046 11.1094 186.89 12.1234C187.734 13.1374 188.156 14.6405 188.156 16.6318V18.0183L183.995 18.134C180.631 18.1989 178.061 18.7962 176.285 19.9259C174.51 21.0565 173.622 22.6424 173.622 24.6854C173.622 26.5479 174.218 28.0058 175.41 29.0593C176.604 30.1128 178.272 30.6386 180.417 30.6386C181.999 30.6386 183.369 30.3593 184.53 29.8005C185.688 29.2418 186.817 28.288 187.916 26.9392H188.077L188.58 30.253H190.048V30.253ZM188.077 21.6604C188.077 23.9339 187.404 25.7098 186.056 26.9871C184.709 28.2664 182.87 28.9051 180.538 28.9051C179.011 28.9051 177.826 28.542 176.99 27.8158C176.151 27.0906 175.733 26.0719 175.733 24.7616C175.733 23.1183 176.386 21.9078 177.692 21.1308C178.999 20.3529 181.188 19.8939 184.257 19.7528L188.077 19.5985V21.6604ZM224.794 30.253V16.5556C224.794 13.8965 224.197 11.9569 223.004 10.7369C221.811 9.51694 220.022 8.90648 217.637 8.90648C216.108 8.90648 214.745 9.22723 213.544 9.86967C212.345 10.5121 211.391 11.4302 210.68 12.6248H210.6C209.621 10.1462 207.41 8.90648 203.965 8.90648C202.625 8.90648 201.399 9.19242 200.286 9.76338C199.2 10.3101 198.305 11.1508 197.713 12.1808H197.592L197.17 9.31188H195.521V30.2539H197.512V18.6937C197.512 15.8812 198.034 13.8353 199.08 12.558C200.125 11.2787 201.794 10.64 204.085 10.64C207.464 10.64 209.153 12.4065 209.153 15.9386V30.2549H211.184V17.9788C211.184 15.4485 211.719 13.5927 212.791 12.4103C213.863 11.2298 215.518 10.6382 217.757 10.6382C219.473 10.6382 220.746 11.1085 221.576 12.0453C222.408 12.9831 222.823 14.4721 222.823 16.5152V30.252H224.794V30.253ZM248.724 19.7914C248.724 16.2462 247.952 13.5456 246.403 11.6898C244.855 9.83393 242.605 8.90554 239.658 8.90554C236.36 8.90554 233.961 10.0352 232.46 12.2965H232.339L231.957 9.31H230.269V39.7326H232.259V31.7561C232.261 30.7152 232.234 29.6745 232.178 28.6351L232.119 27.0172H232.259C233.8 29.4318 236.253 30.6386 239.617 30.6386C242.432 30.6386 244.653 29.6914 246.282 27.7961C247.911 25.9026 248.724 23.234 248.724 19.7914V19.7914ZM246.614 19.8685C246.614 22.7327 246 24.961 244.774 26.5544C243.548 28.1469 241.815 28.9436 239.577 28.9436C236.99 28.9436 235.124 28.2429 233.978 26.8432C232.832 25.4426 232.259 23.1052 232.259 19.8299V19.2129C232.259 16.1822 232.856 13.9952 234.048 12.653C235.24 11.3107 237.111 10.64 239.657 10.64C244.294 10.64 246.614 13.7159 246.614 19.8676V19.8685ZM253.026 9.31V22.9895C253.026 28.0886 255.511 30.6386 260.484 30.6386C264.115 30.6386 266.643 29.5475 268.064 27.3634H268.184L268.546 30.253H270.235V9.31H268.265V20.8703C268.265 23.7091 267.652 25.7577 266.425 27.0163C265.199 28.2758 263.285 28.9051 260.685 28.9051C258.741 28.9051 257.307 28.4253 256.382 27.4687C255.459 26.5121 254.996 24.9808 254.996 22.8738V9.31H253.025H253.026ZM289.232 22.3536C288.784 21.6604 288.11 21.0405 287.212 20.495C286.313 19.9494 284.879 19.3352 282.91 18.6542C280.55 17.8452 278.966 17.1134 278.155 16.4578C277.344 15.8031 276.938 14.9293 276.938 13.8372C276.938 12.8364 277.46 12.0529 278.507 11.4866C279.553 10.9222 280.966 10.64 282.749 10.64C284.585 10.64 286.575 11.0633 288.72 11.9108L289.463 10.1773C287.346 9.32976 285.108 8.90554 282.749 8.90554C280.282 8.90554 278.362 9.36174 276.988 10.2732C275.614 11.1856 274.928 12.4253 274.928 13.9924C274.928 14.9801 275.154 15.8191 275.602 16.5058C276.051 17.1924 276.717 17.8104 277.601 18.356C278.486 18.9015 280.021 19.5534 282.206 20.3115C284.243 21.0048 285.708 21.7121 286.599 22.4308C287.49 23.1503 287.936 24.0364 287.936 25.0899C287.936 26.2328 287.376 27.148 286.257 27.8346C285.138 28.5222 283.499 28.8665 281.341 28.8665C278.902 28.8665 276.584 28.3397 274.385 27.2862V29.3472C276.102 30.2078 278.419 30.6386 281.341 30.6386C284.077 30.6386 286.187 30.1345 287.675 29.1261C289.162 28.1178 289.907 26.6758 289.907 24.8002C289.907 23.8633 289.681 23.0469 289.232 22.3546V22.3536ZM323.954 9.12188H329.038L317.721 30.4402H312.638L323.955 9.12188H323.954ZM310.683 25.5687L298.812 19.781L310.683 13.9934V9.12188L293.816 17.3457V22.2182L310.683 30.4402V25.5687V25.5687ZM347.859 22.2182V17.3457L330.992 9.12188V13.9943L342.863 19.781L330.993 25.5687V30.4411L347.859 22.2172" fill="#EE5D26"/>
</g>
<defs>
<clipPath id="clip0_1589_579">
<rect width="347.778" height="40" fill="white"/>
</clipPath>
</defs>
</svg>
